<svg id="Layer_1" data-name="Layer 1" xmlns="http://www.w3.org/2000/svg" width="100" height="100" viewBox="0 0 100 100"><title>Artboard 11</title><rect x="-10.4" y="-10.4" width="120.9" height="120.91" fill="#e8e9f3"/><path d="M76.5,50v.2A20.3,20.3,0,0,0,96.2,71.1H97V85.8a36.1,36.1,0,0,1-27.2-12l4.6,10.8H57.8L52.4,70.5H23.9L18.5,84.7H2.2L8.3,70.6A293.1,293.1,0,0,1,60.9,52.9V50.6c0-19.4,15.2-35.2,36.2-35.2V29.3A20.1,20.1,0,0,0,76.5,49.1,1.4,1.4,0,0,0,76.5,50ZM58.6,47.5l-14.3,2L38.1,33.6l-7,18.3c-5.5.9-11,2-16.3,3.3L31.4,16.1H45.2Z" fill="#026937"/></svg>